<svg xmlns="http://www.w3.org/2000/svg" viewBox="0 0 1200 630" width="1200" height="630">
  <rect width="1200" height="630" fill="#0b0d12"/>
  <defs>
    <pattern id="grid" width="48" height="48" patternUnits="userSpaceOnUse">
      <path d="M 48 0 L 0 0 0 48" fill="none" stroke="rgba(201,126,58,0.025)" stroke-width="0.5"/>
    </pattern>
    <linearGradient id="topGrad" x1="0" y1="0" x2="1200" y2="0">
      <stop offset="0%" stop-color="#c97e3a"/>
      <stop offset="100%" stop-color="#e8b872"/>
    </linearGradient>
  </defs>
  <rect width="1200" height="630" fill="url(#grid)"/>
  <rect x="0" y="0" width="1200" height="4" fill="url(#topGrad)"/>
  <circle cx="160" cy="300" r="200" fill="rgba(201,126,58,0.035)"/>
  <g transform="translate(100, 230)">
    <path d="M60 0L110 29V87L60 116L10 87V29L60 0Z" fill="rgba(201,126,58,0.07)" stroke="#c97e3a" stroke-width="2.5"/>
    <circle cx="60" cy="2" r="3.5" fill="#c97e3a" opacity="0.7"/>
    <circle cx="108" cy="30" r="3" fill="#c97e3a" opacity="0.5"/>
    <circle cx="108" cy="86" r="3" fill="#c97e3a" opacity="0.4"/>
    <circle cx="60" cy="114" r="3.5" fill="#c97e3a" opacity="0.5"/>
    <circle cx="12" cy="86" r="3" fill="#c97e3a" opacity="0.6"/>
    <circle cx="12" cy="30" r="3" fill="#c97e3a" opacity="0.4"/>
    <line x1="30" y1="35" x2="90" y2="81" stroke="#c97e3a" stroke-width="0.8" opacity="0.2"/>
    <line x1="90" y1="35" x2="30" y2="81" stroke="#c97e3a" stroke-width="0.8" opacity="0.2"/>
    <text x="60" y="66" text-anchor="middle" font-family="system-ui, -apple-system, sans-serif"
      font-size="28" font-weight="800" fill="#c97e3a" letter-spacing="-1">RW</text>
  </g>
  <text x="280" y="280" font-family="system-ui, -apple-system, sans-serif"
    font-size="52" font-weight="800" fill="#e4e2de" letter-spacing="-1.5">Roger Wibrew</text>
  <text x="280" y="330" font-family="system-ui, -apple-system, sans-serif"
    font-size="22" fill="#9b9590">Process Engineering · Simulation · AI</text>
  <text x="280" y="375" font-family="system-ui, -apple-system, sans-serif"
    font-size="18" fill="#c97e3a" font-weight="600">rogerwibrew.com</text>
  <g opacity="0.12">
    <path d="M900 180L950 210V270L900 300L850 270V210Z" stroke="#c97e3a" stroke-width="1.5" fill="none"/>
    <path d="M1000 250L1040 270V310L1000 330L960 310V270Z" stroke="#c97e3a" stroke-width="1" fill="none"/>
    <line x1="950" y1="270" x2="1000" y2="250" stroke="#c97e3a" stroke-width="0.8"/>
    <circle cx="900" cy="180" r="3" fill="#c97e3a"/>
    <circle cx="950" cy="210" r="2.5" fill="#c97e3a"/>
    <circle cx="1000" cy="250" r="2.5" fill="#c97e3a"/>
    <line x1="900" y1="300" x2="900" y2="380" stroke="#6882a8" stroke-width="0.8" opacity="0.5"/>
    <circle cx="900" cy="380" r="3" fill="#6882a8" opacity="0.5"/>
  </g>
  <rect x="0" y="626" width="1200" height="4" fill="url(#topGrad)"/>
</svg>
